<svg xmlns="http://www.w3.org/2000/svg" style="display: none;">
    <symbol id="icon-search" viewBox="0 0 16 16">
        <path d="M11.742 10.344a6.5 6.5 0 1 0-1.397 1.398h-.001q.044.06.098.115l3.85 3.85a1 1 0 0 0 1.415-1.414l-3.85-3.85a1 1 0 0 0-.115-.1zM12 6.5a5.5 5.5 0 1 1-11 0 5.5 5.5 0 0 1 11 0"/>
    </symbol>
    <symbol id="icon-filters" viewBox="0 0 16 16">
        <path fill-rule="evenodd"
              d="M10.5 1a.5.5 0 0 1 .5.5v4a.5.5 0 0 1-1 0V4H1.5a.5.5 0 0 1 0-1H10V1.5a.5.5 0 0 1 .5-.5M12 3.5a.5.5 0 0 1 .5-.5h2a.5.5 0 0 1 0 1h-2a.5.5 0 0 1-.5-.5m-6.5 2A.5.5 0 0 1 6 6v1.5h8.5a.5.5 0 0 1 0 1H6V10a.5.5 0 0 1-1 0V6a.5.5 0 0 1 .5-.5M1 8a.5.5 0 0 1 .5-.5h2a.5.5 0 0 1 0 1h-2A.5.5 0 0 1 1 8m9.5 2a.5.5 0 0 1 .5.5v4a.5.5 0 0 1-1 0V13H1.5a.5.5 0 0 1 0-1H10v-1.5a.5.5 0 0 1 .5-.5m1.5 2.5a.5.5 0 0 1 .5-.5h2a.5.5 0 0 1 0 1h-2a.5.5 0 0 1-.5-.5"/>
    </symbol>
    <symbol id="icon-logout" viewBox="0 0 16 16">
        <path d="M3 2a1 1 0 0 1 1-1h8a1 1 0 0 1 1 1v13h1.5a.5.5 0 0 1 0 1h-13a.5.5 0 0 1 0-1H3zm1 13h8V2H4z"/>
        <path d="M9 9a1 1 0 1 0 2 0 1 1 0 0 0-2 0"/>
    </symbol>
</svg>
